<?xml version="1.0" encoding="UTF-8"?><svg id="Layer_2" xmlns="http://www.w3.org/2000/svg" viewBox="0 0 158.93 260.84"><defs><style>.cls-1{stroke:#f56900;}.cls-1,.cls-2,.cls-3,.cls-4,.cls-5,.cls-6{fill:none;stroke-linecap:round;stroke-linejoin:round;stroke-width:6.68px;}.cls-2{stroke:#f8a100;}.cls-3{stroke:#e81aef;}.cls-4{stroke:#6560ff;}.cls-5{stroke:#00cce3;}.cls-6{stroke:#c0d500;}</style></defs><g id="Layer_1-2"><polyline class="cls-4" points="55.69 237.61 55.69 237.61 55.69 237.61 55.69 237.61 55.69 237.61"/><polyline class="cls-4" points="62.44 238.6 62.44 238.6 62.44 238.6 62.44 238.6 62.44 238.6"/><polyline class="cls-4" points="59.97 232.34 59.97 232.34 59.97 232.34 59.97 232.34 59.97 232.34"/><polyline class="cls-4" points="68.58 238.57 68.58 238.57 68.58 238.57 68.58 238.57 68.58 238.57"/><polyline class="cls-4" points="73.15 234.33 73.15 234.33 73.15 234.33 73.15 234.33 73.15 234.33"/><polyline class="cls-4" points="66.39 232.02 66.39 232.02 66.39 232.02 66.39 232.02 66.39 232.02"/><polyline class="cls-4" points="75.53 240.64 75.53 240.64 75.53 240.64 75.53 240.64 75.53 240.64"/><polyline class="cls-4" points="82.29 241.63 82.29 241.63 82.29 241.63 82.29 241.63 82.29 241.63"/><polyline class="cls-4" points="79.82 235.37 79.82 235.37 79.82 235.37 79.82 235.37 79.82 235.37"/><polyline class="cls-4" points="63.46 245.1 63.46 245.1 63.46 245.1 63.46 245.1 63.46 245.1"/><polyline class="cls-4" points="76.99 247.69 76.99 247.69 76.99 247.69 76.99 247.69 76.99 247.69"/><polyline class="cls-4" points="69.44 246 69.44 246 69.44 246 69.44 246 69.44 246"/><polyline class="cls-4" points="47.37 243.86 47.37 243.86 47.37 243.86 47.37 243.86 47.37 243.86"/><polyline class="cls-4" points="48.46 227.84 48.46 227.84 48.46 227.84 48.46 227.84 48.46 227.84"/><polyline class="cls-4" points="56.12 244.42 56.12 244.42 56.12 244.42 56.12 244.42 56.12 244.42"/><polyline class="cls-4" points="51.84 239.85 51.84 239.85 51.84 239.85 51.84 239.85 51.84 239.85"/><polyline class="cls-4" points="58.6 240.84 58.6 240.84 58.6 240.84 58.6 240.84 58.6 240.84"/><polyline class="cls-4" points="56.16 228.06 56.16 228.06 56.16 228.06 56.16 228.06 56.16 228.06"/><polyline class="cls-4" points="51.84 239.85 51.84 239.85 51.84 239.85 51.84 239.85 51.84 239.85"/><polyline class="cls-4" points="58.6 240.84 58.6 240.84 58.6 240.84 58.6 240.84 58.6 240.84"/><polyline class="cls-4" points="55.11 234.61 55.11 234.61 55.11 234.61 55.11 234.61 55.11 234.61"/><polyline class="cls-4" points="70.93 224.61 70.93 224.61 70.93 224.61 70.93 224.61 70.93 224.61"/><polyline class="cls-4" points="78.69 227.84 78.69 227.84 78.69 227.84 78.69 227.84 78.69 227.84"/><polyline class="cls-4" points="61.22 222.79 61.22 222.79 61.22 222.79 61.22 222.79 61.22 222.79"/><polyline class="cls-4" points="83.65 246.79 83.65 246.79 83.65 246.79 83.65 246.79 83.65 246.79"/><polyline class="cls-4" points="87.26 240.36 87.26 240.36 87.26 240.36 87.26 240.36 87.26 240.36"/><polyline class="cls-4" points="88.16 230.43 88.16 230.43 88.16 230.43 88.16 230.43 88.16 230.43"/><polyline class="cls-4" points="53.19 249.38 53.19 249.38 53.19 249.38 53.19 249.38 53.19 249.38"/><polyline class="cls-4" points="61.99 254.23 61.99 254.23 61.99 254.23 61.99 254.23 61.99 254.23"/><polyline class="cls-4" points="71.58 251.64 71.58 251.64 71.58 251.64 71.58 251.64 71.58 251.64"/><polyline class="cls-2" points="96.87 257.5 96.87 257.5 96.87 257.5 96.87 257.5 96.87 257.5"/><polyline class="cls-4" points="46.31 235.73 46.31 235.73 46.31 235.73 46.31 235.73 46.31 235.73"/><polyline class="cls-2" points="122.92 247.1 122.92 247.1 122.92 247.1 122.92 247.1 122.92 247.1"/><polyline class="cls-2" points="114.63 250.77 114.63 250.77 114.63 250.77 114.63 250.77 114.63 250.77"/><polyline class="cls-2" points="109.97 255.77 109.97 255.77 109.97 255.77 109.97 255.77 109.97 255.77"/><polyline class="cls-2" points="129.27 238.87 129.27 238.87 129.27 238.87 129.27 238.87 129.27 238.87"/><polyline class="cls-2" points="127.81 231.98 127.81 231.98 127.81 231.98 127.81 231.98 127.81 231.98"/><polyline class="cls-2" points="123.62 240.67 123.62 240.67 123.62 240.67 123.62 240.67 123.62 240.67"/><polyline class="cls-2" points="130.75 221.45 130.75 221.45 130.75 221.45 130.75 221.45 130.75 221.45"/><polyline class="cls-2" points="123.51 209.75 123.51 209.75 123.51 209.75 123.51 209.75 123.51 209.75"/><polyline class="cls-2" points="126.69 219.21 126.69 219.21 126.69 219.21 126.69 219.21 126.69 219.21"/><polyline class="cls-2" points="113.99 183.32 113.99 183.32 113.99 183.32 113.99 183.32 113.99 183.32"/><polyline class="cls-2" points="114.77 189.05 114.77 189.05 114.77 189.05 114.77 189.05 114.77 189.05"/><polyline class="cls-2" points="129.91 217.15 129.91 217.15 129.91 217.15 129.91 217.15 129.91 217.15"/><polyline class="cls-2" points="132.84 230.62 132.84 230.62 132.84 230.62 132.84 230.62 132.84 230.62"/><polyline class="cls-3" points="148.6 174.54 148.6 174.54 148.6 174.54 148.6 174.54 148.6 174.54"/><polyline class="cls-3" points="136.8 188.69 136.8 188.69 136.8 188.69 136.8 188.69 136.8 188.69"/><polyline class="cls-3" points="146.88 183.21 146.88 183.21 146.88 183.21 146.88 183.21 146.88 183.21"/><polyline class="cls-3" points="150.74 164.64 150.74 164.64 150.74 164.64 150.74 164.64 150.74 164.64"/><polyline class="cls-3" points="155.02 170.64 155.02 170.64 155.02 170.64 155.02 170.64 155.02 170.64"/><polyline class="cls-3" points="154.74 159.36 154.74 159.36 154.74 159.36 154.74 159.36 154.74 159.36"/><polyline class="cls-3" points="148.2 147.75 148.2 147.75 148.2 147.75 148.2 147.75 148.2 147.75"/><polyline class="cls-3" points="151.03 152.36 151.03 152.36 151.03 152.36 151.03 152.36 151.03 152.36"/><polyline class="cls-3" points="150.64 158.56 150.64 158.56 150.64 158.56 150.64 158.56 150.64 158.56"/><polyline class="cls-3" points="142.74 153.5 142.74 153.5 142.74 153.5 142.74 153.5 142.74 153.5"/><polyline class="cls-3" points="137.6 150.51 137.6 150.51 137.6 150.51 137.6 150.51 137.6 150.51"/><polyline class="cls-3" points="142.07 142.83 142.07 142.83 142.07 142.83 142.07 142.83 142.07 142.83"/><polyline class="cls-3" points="130.15 150.84 130.15 150.84 130.15 150.84 130.15 150.84 130.15 150.84"/><polyline class="cls-3" points="133.03 145.22 133.03 145.22 133.03 145.22 133.03 145.22 133.03 145.22"/><polyline class="cls-3" points="137.46 140.62 137.46 140.62 137.46 140.62 137.46 140.62 137.46 140.62"/><polyline class="cls-3" points="117.99 133.53 117.99 133.53 117.99 133.53 117.99 133.53 117.99 133.53"/><polyline class="cls-3" points="131.07 137.05 131.07 137.05 131.07 137.05 131.07 137.05 131.07 137.05"/><polyline class="cls-3" points="124.88 144.55 124.88 144.55 124.88 144.55 124.88 144.55 124.88 144.55"/><polyline class="cls-3" points="108.76 137.08 108.76 137.08 108.76 137.08 108.76 137.08 108.76 137.08"/><polyline class="cls-3" points="117.18 143.37 117.18 143.37 117.18 143.37 117.18 143.37 117.18 143.37"/><polyline class="cls-3" points="121.47 148.08 121.47 148.08 121.47 148.08 121.47 148.08 121.47 148.08"/><polyline class="cls-3" points="103.18 145.12 103.18 145.12 103.18 145.12 103.18 145.12 103.18 145.12"/><polyline class="cls-3" points="107.2 147.67 107.2 147.67 107.2 147.67 107.2 147.67 107.2 147.67"/><polyline class="cls-3" points="113.24 146.55 113.24 146.55 113.24 146.55 113.24 146.55 113.24 146.55"/><polyline class="cls-3" points="95.9 141.51 95.9 141.51 95.9 141.51 95.9 141.51 95.9 141.51"/><polyline class="cls-3" points="105.79 132.62 105.79 132.62 105.79 132.62 105.79 132.62 105.79 132.62"/><polyline class="cls-3" points="103.19 142.51 103.19 142.51 103.19 142.51 103.19 142.51 103.19 142.51"/><polyline class="cls-3" points="93.63 136.21 93.63 136.21 93.63 136.21 93.63 136.21 93.63 136.21"/><polyline class="cls-3" points="93.63 149.18 93.63 149.18 93.63 149.18 93.63 149.18 93.63 149.18"/><polyline class="cls-3" points="86.28 135.56 86.28 135.56 86.28 135.56 86.28 135.56 86.28 135.56"/><polyline class="cls-3" points="88.07 144.95 88.07 144.95 88.07 144.95 88.07 144.95 88.07 144.95"/><polyline class="cls-3" points="86.21 151.57 86.21 151.57 86.21 151.57 86.21 151.57 86.21 151.57"/><polyline class="cls-3" points="80.08 137.66 80.08 137.66 80.08 137.66 80.08 137.66 80.08 137.66"/><polyline class="cls-3" points="79.33 155.01 79.33 155.01 79.33 155.01 79.33 155.01 79.33 155.01"/><polyline class="cls-3" points="79.03 146.34 79.03 146.34 79.03 146.34 79.03 146.34 79.03 146.34"/><polyline class="cls-3" points="71.12 144.15 71.12 144.15 71.12 144.15 71.12 144.15 71.12 144.15"/><polyline class="cls-3" points="69 152.36 69 152.36 69 152.36 69 152.36 69 152.36"/><polyline class="cls-3" points="74.83 150.77 74.83 150.77 74.83 150.77 74.83 150.77 74.83 150.77"/><polyline class="cls-3" points="63.44 150.51 63.44 150.51 63.44 150.51 63.44 150.51 63.44 150.51"/><polyline class="cls-3" points="59.01 156.41 59.01 156.41 59.01 156.41 59.01 156.41 59.01 156.41"/><polyline class="cls-3" points="72.71 158.98 72.71 158.98 72.71 158.98 72.71 158.98 72.71 158.98"/><polyline class="cls-3" points="64.5 158.45 64.5 158.45 64.5 158.45 64.5 158.45 64.5 158.45"/><polyline class="cls-3" points="71.97 165.98 71.97 165.98 71.97 165.98 71.97 165.98 71.97 165.98"/><polyline class="cls-3" points="58.07 166.64 58.07 166.64 58.07 166.64 58.07 166.64 58.07 166.64"/><polyline class="cls-3" points="65.81 164.99 65.81 164.99 65.81 164.99 65.81 164.99 65.81 164.99"/><polyline class="cls-3" points="78.13 177.88 78.13 177.88 78.13 177.88 78.13 177.88 78.13 177.88"/><polyline class="cls-3" points="66.96 173.01 66.96 173.01 66.96 173.01 66.96 173.01 66.96 173.01"/><polyline class="cls-3" points="73.92 176.5 73.92 176.5 73.92 176.5 73.92 176.5 73.92 176.5"/><polyline class="cls-5" points="85.28 201.84 85.28 201.84 85.28 201.84 85.28 201.84 85.28 201.84"/><polyline class="cls-5" points="98.96 201.83 98.96 201.83 98.96 201.83 98.96 201.83 98.96 201.83"/><polyline class="cls-5" points="78.05 203.9 78.05 203.9 78.05 203.9 78.05 203.9 78.05 203.9"/><polyline class="cls-5" points="59.73 201.03 59.73 201.03 59.73 201.03 59.73 201.03 59.73 201.03"/><polyline class="cls-5" points="67.42 201.03 67.42 201.03 67.42 201.03 67.42 201.03 67.42 201.03"/><polyline class="cls-5" points="53.7 198.01 53.7 198.01 53.7 198.01 53.7 198.01 53.7 198.01"/><polyline class="cls-5" points="46.84 194.44 46.84 194.44 46.84 194.44 46.84 194.44 46.84 194.44"/><polyline class="cls-5" points="47.11 198.56 47.11 198.56 47.11 198.56 47.11 198.56 47.11 198.56"/><polyline class="cls-5" points="39.15 195.26 39.15 195.26 39.15 195.26 39.15 195.26 39.15 195.26"/><polyline class="cls-5" points="30.37 182.64 30.37 182.64 30.37 182.64 30.37 182.64 30.37 182.64"/><polyline class="cls-5" points="39.15 189.5 39.15 189.5 39.15 189.5 39.15 189.5 39.15 189.5"/><polyline class="cls-5" points="31.74 191.15 31.74 191.15 31.74 191.15 31.74 191.15 31.74 191.15"/><polyline class="cls-5" points="25.19 187.35 25.19 187.35 25.19 187.35 25.19 187.35 25.19 187.35"/><polyline class="cls-5" points="20.4 173.36 20.4 173.36 20.4 173.36 20.4 173.36 20.4 173.36"/><polyline class="cls-4" points="82.37 256.66 82.37 256.66 82.37 256.66 82.37 256.66 82.37 256.66"/><polyline class="cls-5" points="16.29 179.28 16.29 179.28 16.29 179.28 16.29 179.28 16.29 179.28"/><polyline class="cls-5" points="23.36 177.56 23.36 177.56 23.36 177.56 23.36 177.56 23.36 177.56"/><polyline class="cls-5" points="15.81 174.31 15.81 174.31 15.81 174.31 15.81 174.31 15.81 174.31"/><polyline class="cls-5" points="7.71 167.83 7.71 167.83 7.71 167.83 7.71 167.83 7.71 167.83"/><polyline class="cls-5" points="21.73 165.14 21.73 165.14 21.73 165.14 21.73 165.14 21.73 165.14"/><polyline class="cls-5" points="17.14 168.3 17.14 168.3 17.14 168.3 17.14 168.3 17.14 168.3"/><polyline class="cls-5" points="24.02 153.5 24.02 153.5 24.02 153.5 24.02 153.5 24.02 153.5"/><polyline class="cls-5" points="4.89 156.52 4.89 156.52 4.89 156.52 4.89 156.52 4.89 156.52"/><polyline class="cls-5" points="15.25 163.59 15.25 163.59 15.25 163.59 15.25 163.59 15.25 163.59"/><polyline class="cls-5" points="10.52 161.36 10.52 161.36 10.52 161.36 10.52 161.36 10.52 161.36"/><polyline class="cls-5" points="19.47 157.62 19.47 157.62 19.47 157.62 19.47 157.62 19.47 157.62"/><polyline class="cls-5" points="13.09 155.45 13.09 155.45 13.09 155.45 13.09 155.45 13.09 155.45"/><polyline class="cls-5" points="7.65 141.94 7.65 141.94 7.65 141.94 7.65 141.94 7.65 141.94"/><polyline class="cls-5" points="7.15 148.9 7.15 148.9 7.15 148.9 7.15 148.9 7.15 148.9"/><polyline class="cls-5" points="17.64 148.51 17.64 148.51 17.64 148.51 17.64 148.51 17.64 148.51"/><polyline class="cls-5" points="14.01 143.94 14.01 143.94 14.01 143.94 14.01 143.94 14.01 143.94"/><polyline class="cls-5" points="28.29 146.37 28.29 146.37 28.29 146.37 28.29 146.37 28.29 146.37"/><polyline class="cls-5" points="11.56 133 11.56 133 11.56 133 11.56 133 11.56 133"/><polyline class="cls-5" points="19.15 138.37 19.15 138.37 19.15 138.37 19.15 138.37 19.15 138.37"/><polyline class="cls-5" points="22.32 146.28 22.32 146.28 22.32 146.28 22.32 146.28 22.32 146.28"/><polyline class="cls-5" points="32.6 138.77 32.6 138.77 32.6 138.77 32.6 138.77 32.6 138.77"/><polyline class="cls-5" points="18.59 131.74 18.59 131.74 18.59 131.74 18.59 131.74 18.59 131.74"/><polyline class="cls-5" points="18.04 123.74 18.04 123.74 18.04 123.74 18.04 123.74 18.04 123.74"/><polyline class="cls-5" points="26.38 139.28 26.38 139.28 26.38 139.28 26.38 139.28 26.38 139.28"/><polyline class="cls-5" points="25.65 125.9 25.65 125.9 25.65 125.9 25.65 125.9 25.65 125.9"/><polyline class="cls-5" points="25.65 132.47 25.65 132.47 25.65 132.47 25.65 132.47 25.65 132.47"/><polyline class="cls-5" points="31.24 131.98 31.24 131.98 31.24 131.98 31.24 131.98 31.24 131.98"/><polyline class="cls-5" points="23.7 118.61 23.7 118.61 23.7 118.61 23.7 118.61 23.7 118.61"/><polyline class="cls-5" points="40.22 132.13 40.22 132.13 40.22 132.13 40.22 132.13 40.22 132.13"/><polyline class="cls-5" points="31.49 120.41 31.49 120.41 31.49 120.41 31.49 120.41 31.49 120.41"/><polyline class="cls-5" points="26.89 111.57 26.89 111.57 26.89 111.57 26.89 111.57 26.89 111.57"/><polyline class="cls-5" points="33.09 126.4 33.09 126.4 33.09 126.4 33.09 126.4 33.09 126.4"/><polyline class="cls-5" points="45.51 126.4 45.51 126.4 45.51 126.4 45.51 126.4 45.51 126.4"/><polyline class="cls-5" points="30.08 112.86 30.08 112.86 30.08 112.86 30.08 112.86 30.08 112.86"/><polyline class="cls-5" points="39.3 124.68 39.3 124.68 39.3 124.68 39.3 124.68 39.3 124.68"/><polyline class="cls-5" points="36.28 118.04 36.28 118.04 36.28 118.04 36.28 118.04 36.28 118.04"/><polyline class="cls-5" points="33.33 105.06 33.33 105.06 33.33 105.06 33.33 105.06 33.33 105.06"/><polyline class="cls-5" points="50.31 120.34 50.31 120.34 50.31 120.34 50.31 120.34 50.31 120.34"/><polyline class="cls-5" points="37.01 111.45 37.01 111.45 37.01 111.45 37.01 111.45 37.01 111.45"/><polyline class="cls-5" points="40.88 119.43 40.88 119.43 40.88 119.43 40.88 119.43 40.88 119.43"/><polyline class="cls-5" points="55.31 116.96 55.31 116.96 55.31 116.96 55.31 116.96 55.31 116.96"/><polyline class="cls-5" points="43.55 113.27 43.55 113.27 43.55 113.27 43.55 113.27 43.55 113.27"/><polyline class="cls-5" points="41.26 105.42 41.26 105.42 41.26 105.42 41.26 105.42 41.26 105.42"/><polyline class="cls-5" points="48.45 112.61 48.45 112.61 48.45 112.61 48.45 112.61 48.45 112.61"/><polyline class="cls-5" points="44.85 98.38 44.85 98.38 44.85 98.38 44.85 98.38 44.85 98.38"/><polyline class="cls-5" points="47.8 106.07 47.8 106.07 47.8 106.07 47.8 106.07 47.8 106.07"/><polyline class="cls-5" points="54.67 109.01 54.67 109.01 54.67 109.01 54.67 109.01 54.67 109.01"/><polyline class="cls-5" points="60.88 111.47 60.88 111.47 60.88 111.47 60.88 111.47 60.88 111.47"/><polyline class="cls-5" points="52.38 101 52.38 101 52.38 101 52.38 101 52.38 101"/><polyline class="cls-5" points="68.08 108.85 68.08 108.85 68.08 108.85 68.08 108.85 68.08 108.85"/><polyline class="cls-5" points="52.05 90.7 52.05 90.7 52.05 90.7 52.05 90.7 52.05 90.7"/><polyline class="cls-5" points="61.38 85.77 61.38 85.77 61.38 85.77 61.38 85.77 61.38 85.77"/><polyline class="cls-5" points="61.73 95.87 61.73 95.87 61.73 95.87 61.73 95.87 61.73 95.87"/><polyline class="cls-5" points="59.34 103.34 59.34 103.34 59.34 103.34 59.34 103.34 59.34 103.34"/><polyline class="cls-1" points="84.64 111.69 84.64 111.69 84.64 111.69 84.64 111.69 84.64 111.69"/><polyline class="cls-1" points="86.74 123.51 86.74 123.51 86.74 123.51 86.74 123.51 86.74 123.51"/><polyline class="cls-1" points="81.71 100.74 81.71 100.74 81.71 100.74 81.71 100.74 81.71 100.74"/><polyline class="cls-1" points="71.52 74.41 71.52 74.41 71.52 74.41 71.52 74.41 71.52 74.41"/><polyline class="cls-1" points="77.18 95 77.18 95 77.18 95 77.18 95 77.18 95"/><polyline class="cls-1" points="76.27 83.52 76.27 83.52 76.27 83.52 76.27 83.52 76.27 83.52"/><polyline class="cls-1" points="67.22 60.19 67.22 60.19 67.22 60.19 67.22 60.19 67.22 60.19"/><polyline class="cls-1" points="71.09 79.66 71.09 79.66 71.09 79.66 71.09 79.66 71.09 79.66"/><polyline class="cls-1" points="71.09 67.65 71.09 67.65 71.09 67.65 71.09 67.65 71.09 67.65"/><polyline class="cls-1" points="70.12 46.65 70.12 46.65 70.12 46.65 70.12 46.65 70.12 46.65"/><polyline class="cls-1" points="70.54 54.39 70.54 54.39 70.54 54.39 70.54 54.39 70.54 54.39"/><polyline class="cls-1" points="63.63 47.62 63.63 47.62 63.63 47.62 63.63 47.62 63.63 47.62"/><polyline class="cls-1" points="65.56 29.78 65.56 29.78 65.56 29.78 65.56 29.78 65.56 29.78"/><polyline class="cls-1" points="64.02 39.05 64.02 39.05 64.02 39.05 64.02 39.05 64.02 39.05"/><polyline class="cls-1" points="72.68 39.49 72.68 39.49 72.68 39.49 72.68 39.49 72.68 39.49"/><polyline class="cls-1" points="69.43 20.27 69.43 20.27 69.43 20.27 69.43 20.27 69.43 20.27"/><polyline class="cls-1" points="71.39 35.17 71.39 35.17 71.39 35.17 71.39 35.17 71.39 35.17"/><polyline class="cls-1" points="74.15 29.73 74.15 29.73 74.15 29.73 74.15 29.73 74.15 29.73"/><polyline class="cls-1" points="78.87 6.61 78.87 6.61 78.87 6.61 78.87 6.61 78.87 6.61"/><polyline class="cls-1" points="78.08 22.87 78.08 22.87 78.08 22.87 78.08 22.87 78.08 22.87"/><polyline class="cls-1" points="79.08 27.82 79.08 27.82 79.08 27.82 79.08 27.82 79.08 27.82"/><polyline class="cls-1" points="82.66 21.32 82.66 21.32 82.66 21.32 82.66 21.32 82.66 21.32"/><polyline class="cls-1" points="72.75 13.76 72.75 13.76 72.75 13.76 72.75 13.76 72.75 13.76"/><polyline class="cls-1" points="81.49 16.28 81.49 16.28 81.49 16.28 81.49 16.28 81.49 16.28"/><polyline class="cls-1" points="88.21 16.45 88.21 16.45 88.21 16.45 88.21 16.45 88.21 16.45"/><polyline class="cls-1" points="84.34 4.35 84.34 4.35 84.34 4.35 84.34 4.35 84.34 4.35"/><polyline class="cls-1" points="87.7 11.24 87.7 11.24 87.7 11.24 87.7 11.24 87.7 11.24"/><polyline class="cls-1" points="100.14 6.37 100.14 6.37 100.14 6.37 100.14 6.37 100.14 6.37"/><polyline class="cls-1" points="92.99 10.17 92.99 10.17 92.99 10.17 92.99 10.17 92.99 10.17"/><polyline class="cls-1" points="93.08 3.34 93.08 3.34 93.08 3.34 93.08 3.34 93.08 3.34"/><polyline class="cls-1" points="76.78 16.79 76.78 16.79 76.78 16.79 76.78 16.79 76.78 16.79"/><polyline class="cls-1" points="105.18 12.08 105.18 12.08 105.18 12.08 105.18 12.08 105.18 12.08"/><polyline class="cls-1" points="111.97 19.17 111.97 19.17 111.97 19.17 111.97 19.17 111.97 19.17"/><polyline class="cls-1" points="69.72 25.53 69.72 25.53 69.72 25.53 69.72 25.53 69.72 25.53"/><polyline class="cls-1" points="80.81 10.74 80.81 10.74 80.81 10.74 80.81 10.74 80.81 10.74"/><polyline class="cls-6" points="120.31 33.76 120.31 33.76 120.31 33.76 120.31 33.76 120.31 33.76"/><polyline class="cls-6" points="122.33 40.86 122.33 40.86 122.33 40.86 122.33 40.86 122.33 40.86"/><polyline class="cls-5" points="11.58 175.44 11.58 175.44 11.58 175.44 11.58 175.44 11.58 175.44"/><polyline class="cls-1" points="65.49 53.11 65.49 53.11 65.49 53.11 65.49 53.11 65.49 53.11"/><polyline class="cls-6" points="115.03 52.42 115.03 52.42 115.03 52.42 115.03 52.42 115.03 52.42"/><polyline class="cls-6" points="122.53 50.47 122.53 50.47 122.53 50.47 122.53 50.47 122.53 50.47"/><polyline class="cls-6" points="117.57 44.46 117.57 44.46 117.57 44.46 117.57 44.46 117.57 44.46"/><polyline class="cls-6" points="116.12 61.39 116.12 61.39 116.12 61.39 116.12 61.39 116.12 61.39"/><polyline class="cls-6" points="119.42 55.98 119.42 55.98 119.42 55.98 119.42 55.98 119.42 55.98"/><polyline class="cls-6" points="108.91 58.54 108.91 58.54 108.91 58.54 108.91 58.54 108.91 58.54"/><polyline class="cls-6" points="94.97 67.83 94.97 67.83 94.97 67.83 94.97 67.83 94.97 67.83"/><polyline class="cls-6" points="119.89 62.13 119.89 62.13 119.89 62.13 119.89 62.13 119.89 62.13"/><polyline class="cls-6" points="101.73 63.82 101.73 63.82 101.73 63.82 101.73 63.82 101.73 63.82"/><polyline class="cls-6" points="92.01 93.18 92.01 93.18 92.01 93.18 92.01 93.18 92.01 93.18"/><polyline class="cls-6" points="89.59 74.54 89.59 74.54 89.59 74.54 89.59 74.54 89.59 74.54"/><polyline class="cls-6" points="89.26 85.37 89.26 85.37 89.26 85.37 89.26 85.37 89.26 85.37"/><polyline class="cls-6" points="104.26 85.79 104.26 85.79 104.26 85.79 104.26 85.79 104.26 85.79"/><polyline class="cls-6" points="94.76 81.35 94.76 81.35 94.76 81.35 94.76 81.35 94.76 81.35"/><polyline class="cls-6" points="98.56 89.38 98.56 89.38 98.56 89.38 98.56 89.38 98.56 89.38"/><polyline class="cls-6" points="112.92 79.66 112.92 79.66 112.92 79.66 112.92 79.66 112.92 79.66"/><polyline class="cls-6" points="94.97 86.63 94.97 86.63 94.97 86.63 94.97 86.63 94.97 86.63"/><polyline class="cls-6" points="116.52 72.8 116.52 72.8 116.52 72.8 116.52 72.8 116.52 72.8"/><polyline class="cls-6" points="113.55 65.72 113.55 65.72 113.55 65.72 113.55 65.72 113.55 65.72"/><polyline class="cls-6" points="96.66 74.8 96.66 74.8 96.66 74.8 96.66 74.8 96.66 74.8"/><polyline class="cls-6" points="111.44 73.33 111.44 73.33 111.44 73.33 111.44 73.33 111.44 73.33"/><polyline class="cls-6" points="100.67 81.35 100.67 81.35 100.67 81.35 100.67 81.35 100.67 81.35"/><polyline class="cls-6" points="107.22 66.36 107.22 66.36 107.22 66.36 107.22 66.36 107.22 66.36"/><polyline class="cls-6" points="100.8 70.4 100.8 70.4 100.8 70.4 100.8 70.4 100.8 70.4"/><polyline class="cls-6" points="106.79 71.64 106.79 71.64 106.79 71.64 106.79 71.64 106.79 71.64"/><polyline class="cls-6" points="108.48 82.41 108.48 82.41 108.48 82.41 108.48 82.41 108.48 82.41"/><polyline class="cls-6" points="104.89 76.71 104.89 76.71 104.89 76.71 104.89 76.71 104.89 76.71"/><polyline class="cls-4" points="62 249.94 62 249.94 62 249.94 62 249.94 62 249.94"/><polyline class="cls-4" points="70.42 230.39 70.42 230.39 70.42 230.39 70.42 230.39 70.42 230.39"/><polyline class="cls-4" points="84.78 235.58 84.78 235.58 84.78 235.58 84.78 235.58 84.78 235.58"/><polyline class="cls-4" points="74.38 236.57 74.38 236.57 74.38 236.57 74.38 236.57 74.38 236.57"/><polyline class="cls-4" points="75.37 231.38 75.37 231.38 75.37 231.38 75.37 231.38 75.37 231.38"/><polyline class="cls-4" points="79.83 238.56 79.83 238.56 79.83 238.56 79.83 238.56 79.83 238.56"/><polyline class="cls-4" points="65.78 250.14 65.78 250.14 65.78 250.14 65.78 250.14 65.78 250.14"/><polyline class="cls-4" points="59.62 246.17 59.62 246.17 59.62 246.17 59.62 246.17 59.62 246.17"/><polyline class="cls-4" points="79.29 244.38 79.29 244.38 79.29 244.38 79.29 244.38 79.29 244.38"/><polyline class="cls-4" points="50.67 232.58 50.67 232.58 50.67 232.58 50.67 232.58 50.67 232.58"/><polyline class="cls-4" points="74.13 246.96 74.13 246.96 74.13 246.96 74.13 246.96 74.13 246.96"/><polyline class="cls-4" points="62.07 226.84 62.07 226.84 62.07 226.84 62.07 226.84 62.07 226.84"/><polyline class="cls-4" points="67.45 235.58 67.45 235.58 67.45 235.58 67.45 235.58 67.45 235.58"/><polyline class="cls-4" points="66.46 225.68 66.46 225.68 66.46 225.68 66.46 225.68 66.46 225.68"/><polyline class="cls-4" points="82.31 231.62 82.31 231.62 82.31 231.62 82.31 231.62 82.31 231.62"/><polyline class="cls-4" points="64.73 229.39 64.73 229.39 64.73 229.39 64.73 229.39 64.73 229.39"/><polyline class="cls-4" points="66.18 242.39 66.18 242.39 66.18 242.39 66.18 242.39 66.18 242.39"/><polyline class="cls-4" points="58.89 249.4 58.89 249.4 58.89 249.4 58.89 249.4 58.89 249.4"/><polyline class="cls-4" points="72.14 241.99 72.14 241.99 72.14 241.99 72.14 241.99 72.14 241.99"/><polyline class="cls-4" points="51.48 244.77 51.48 244.77 51.48 244.77 51.48 244.77 51.48 244.77"/><polyline class="cls-4" points="61.02 235.44 61.02 235.44 61.02 235.44 61.02 235.44 61.02 235.44"/><polyline class="cls-4" points="75.18 225.8 75.18 225.8 75.18 225.8 75.18 225.8 75.18 225.8"/><polyline class="cls-2" points="120.42 245.49 120.42 245.49 120.42 245.49 120.42 245.49 120.42 245.49"/><polyline class="cls-2" points="114.72 253.37 114.72 253.37 114.72 253.37 114.72 253.37 114.72 253.37"/><polyline class="cls-2" points="120.15 249.52 120.15 249.52 120.15 249.52 120.15 249.52 120.15 249.52"/><polyline class="cls-2" points="128.66 241.98 128.66 241.98 128.66 241.98 128.66 241.98 128.66 241.98"/><polyline class="cls-2" points="126.39 235.22 126.39 235.22 126.39 235.22 126.39 235.22 126.39 235.22"/><polyline class="cls-2" points="132.78 236.05 132.78 236.05 132.78 236.05 132.78 236.05 132.78 236.05"/><polyline class="cls-2" points="128.06 226.88 128.06 226.88 128.06 226.88 128.06 226.88 128.06 226.88"/><polyline class="cls-2" points="133.89 225.91 133.89 225.91 133.89 225.91 133.89 225.91 133.89 225.91"/><polyline class="cls-2" points="133.56 220.32 133.56 220.32 133.56 220.32 133.56 220.32 133.56 220.32"/><polyline class="cls-2" points="131.08 215.03 131.08 215.03 131.08 215.03 131.08 215.03 131.08 215.03"/><polyline class="cls-2" points="125.46 214.39 125.46 214.39 125.46 214.39 125.46 214.39 125.46 214.39"/><polyline class="cls-2" points="129.05 210.25 129.05 210.25 129.05 210.25 129.05 210.25 129.05 210.25"/><polyline class="cls-2" points="120.31 201.79 120.31 201.79 120.31 201.79 120.31 201.79 120.31 201.79"/><polyline class="cls-2" points="120.37 195.7 120.37 195.7 120.37 195.7 120.37 195.7 120.37 195.7"/><polyline class="cls-2" points="109.19 174.12 109.19 174.12 109.19 174.12 109.19 174.12 109.19 174.12"/><polyline class="cls-2" points="124.99 203.38 124.99 203.38 124.99 203.38 124.99 203.38 124.99 203.38"/><polyline class="cls-3" points="151.12 179.18 151.12 179.18 151.12 179.18 151.12 179.18 151.12 179.18"/><polyline class="cls-3" points="153.91 173.79 153.91 173.79 153.91 173.79 153.91 173.79 153.91 173.79"/><polyline class="cls-3" points="150.56 166.9 150.56 166.9 150.56 166.9 150.56 166.9 150.56 166.9"/><polyline class="cls-3" points="155.59 164.67 155.59 164.67 155.59 164.67 155.59 164.67 155.59 164.67"/><polyline class="cls-3" points="147.27 158.27 147.27 158.27 147.27 158.27 147.27 158.27 147.27 158.27"/><polyline class="cls-3" points="147.5 153.21 147.5 153.21 147.5 153.21 147.5 153.21 147.5 153.21"/><polyline class="cls-3" points="143.08 148.45 143.08 148.45 143.08 148.45 143.08 148.45 143.08 148.45"/><polyline class="cls-3" points="137.62 146.24 137.62 146.24 137.62 146.24 137.62 146.24 137.62 146.24"/><polyline class="cls-3" points="131.46 142.75 131.46 142.75 131.46 142.75 131.46 142.75 131.46 142.75"/><polyline class="cls-3" points="127.4 142.53 127.4 142.53 127.4 142.53 127.4 142.53 127.4 142.53"/><polyline class="cls-3" points="125.28 133.02 125.28 133.02 125.28 133.02 125.28 133.02 125.28 133.02"/><polyline class="cls-3" points="123.22 138.31 123.22 138.31 123.22 138.31 123.22 138.31 123.22 138.31"/><polyline class="cls-3" points="119.49 139.16 119.49 139.16 119.49 139.16 119.49 139.16 119.49 139.16"/><polyline class="cls-3" points="117.17 146.93 117.17 146.93 117.17 146.93 117.17 146.93 117.17 146.93"/><polyline class="cls-3" points="113.19 130.53 113.19 130.53 113.19 130.53 113.19 130.53 113.19 130.53"/><polyline class="cls-3" points="114.16 137.86 114.16 137.86 114.16 137.86 114.16 137.86 114.16 137.86"/><polyline class="cls-3" points="112.52 142.52 112.52 142.52 112.52 142.52 112.52 142.52 112.52 142.52"/><polyline class="cls-3" points="106.82 140.31 106.82 140.31 106.82 140.31 106.82 140.31 106.82 140.31"/><polyline class="cls-3" points="97.94 131.74 97.94 131.74 97.94 131.74 97.94 131.74 97.94 131.74"/><polyline class="cls-3" points="101.63 138.49 101.63 138.49 101.63 138.49 101.63 138.49 101.63 138.49"/><polyline class="cls-3" points="97.93 137.61 97.93 137.61 97.93 137.61 97.93 137.61 97.93 137.61"/><polyline class="cls-3" points="99.16 143.24 99.16 143.24 99.16 143.24 99.16 143.24 99.16 143.24"/><polyline class="cls-3" points="97.28 148.17 97.28 148.17 97.28 148.17 97.28 148.17 97.28 148.17"/><polyline class="cls-3" points="92.94 144.65 92.94 144.65 92.94 144.65 92.94 144.65 92.94 144.65"/><polyline class="cls-3" points="90.83 140.37 90.83 140.37 90.83 140.37 90.83 140.37 90.83 140.37"/><polyline class="cls-3" points="83.92 142.7 83.92 142.7 83.92 142.7 83.92 142.7 83.92 142.7"/><polyline class="cls-3" points="88.52 147.11 88.52 147.11 88.52 147.11 88.52 147.11 88.52 147.11"/><polyline class="cls-3" points="83.92 148.42 83.92 148.42 83.92 148.42 83.92 148.42 83.92 148.42"/><polyline class="cls-3" points="83.27 153.86 83.27 153.86 83.27 153.86 83.27 153.86 83.27 153.86"/><polyline class="cls-3" points="80.08 150.63 80.08 150.63 80.08 150.63 80.08 150.63 80.08 150.63"/><polyline class="cls-3" points="76.08 144.32 76.08 144.32 76.08 144.32 76.08 144.32 76.08 144.32"/><polyline class="cls-3" points="68.91 148.51 68.91 148.51 68.91 148.51 68.91 148.51 68.91 148.51"/><polyline class="cls-3" points="69.38 160.9 69.38 160.9 69.38 160.9 69.38 160.9 69.38 160.9"/><polyline class="cls-3" points="67.69 155.36 67.69 155.36 67.69 155.36 67.69 155.36 67.69 155.36"/><polyline class="cls-3" points="62.9 161.09 62.9 161.09 62.9 161.09 62.9 161.09 62.9 161.09"/><polyline class="cls-3" points="64.69 170 64.69 170 64.69 170 64.69 170 64.69 170"/><polyline class="cls-3" points="70.03 169.06 70.03 169.06 70.03 169.06 70.03 169.06 70.03 169.06"/><polyline class="cls-3" points="70.97 171.22 70.97 171.22 70.97 171.22 70.97 171.22 70.97 171.22"/><polyline class="cls-3" points="85.45 139.21 85.45 139.21 85.45 139.21 85.45 139.21 85.45 139.21"/><polyline class="cls-5" points="46.58 102.38 46.58 102.38 46.58 102.38 46.58 102.38 46.58 102.38"/><polyline class="cls-5" points="52.98 104.39 52.98 104.39 52.98 104.39 52.98 104.39 52.98 104.39"/><polyline class="cls-5" points="50.78 109.14 50.78 109.14 50.78 109.14 50.78 109.14 50.78 109.14"/><polyline class="cls-5" points="44.21 109.32 44.21 109.32 44.21 109.32 44.21 109.32 44.21 109.32"/><polyline class="cls-5" points="39.64 114.98 39.64 114.98 39.64 114.98 39.64 114.98 39.64 114.98"/><polyline class="cls-5" points="39.28 108.96 39.28 108.96 39.28 108.96 39.28 108.96 39.28 108.96"/><polyline class="cls-5" points="36.54 123 36.54 123 36.54 123 36.54 123 36.54 123"/><polyline class="cls-5" points="21.58 128.2 21.58 128.2 21.58 128.2 21.58 128.2 21.58 128.2"/><polyline class="cls-5" points="28.93 127.31 28.93 127.31 28.93 127.31 28.93 127.31 28.93 127.31"/><polyline class="cls-5" points="22.97 123.26 22.97 123.26 22.97 123.26 22.97 123.26 22.97 123.26"/><polyline class="cls-5" points="28.81 121.74 28.81 121.74 28.81 121.74 28.81 121.74 28.81 121.74"/><polyline class="cls-5" points="28.3 116.67 28.3 116.67 28.3 116.67 28.3 116.67 28.3 116.67"/><polyline class="cls-5" points="33.62 114.76 33.62 114.76 33.62 114.76 33.62 114.76 33.62 114.76"/><polyline class="cls-5" points="32.74 108.93 32.74 108.93 32.74 108.93 32.74 108.93 32.74 108.93"/><polyline class="cls-5" points="58.98 106.78 58.98 106.78 58.98 106.78 58.98 106.78 58.98 106.78"/><polyline class="cls-5" points="56.31 111.34 56.31 111.34 56.31 111.34 56.31 111.34 56.31 111.34"/><polyline class="cls-5" points="51.24 114.26 51.24 114.26 51.24 114.26 51.24 114.26 51.24 114.26"/><polyline class="cls-5" points="45.92 117.05 45.92 117.05 45.92 117.05 45.92 117.05 45.92 117.05"/><polyline class="cls-5" points="45.16 122.5 45.16 122.5 45.16 122.5 45.16 122.5 45.16 122.5"/><polyline class="cls-5" points="35.27 128.96 35.27 128.96 35.27 128.96 35.27 128.96 35.27 128.96"/><polyline class="cls-5" points="34.89 134.41 34.89 134.41 34.89 134.41 34.89 134.41 34.89 134.41"/><polyline class="cls-5" points="50.44 95.07 50.44 95.07 50.44 95.07 50.44 95.07 50.44 95.07"/><polyline class="cls-5" points="55.71 95.98 55.71 95.98 55.71 95.98 55.71 95.98 55.71 95.98"/><polyline class="cls-5" points="14.97 135.62 14.97 135.62 14.97 135.62 14.97 135.62 14.97 135.62"/><polyline class="cls-5" points="22.2 134.52 22.2 134.52 22.2 134.52 22.2 134.52 22.2 134.52"/><polyline class="cls-5" points="11.82 139.08 11.82 139.08 11.82 139.08 11.82 139.08 11.82 139.08"/><polyline class="cls-5" points="22.83 140.65 22.83 140.65 22.83 140.65 22.83 140.65 22.83 140.65"/><polyline class="cls-5" points="11.98 148.99 11.98 148.99 11.98 148.99 11.98 148.99 11.98 148.99"/><polyline class="cls-5" points="16.85 140.5 16.85 140.5 16.85 140.5 16.85 140.5 16.85 140.5"/><polyline class="cls-5" points="9.62 154.18 9.62 154.18 9.62 154.18 9.62 154.18 9.62 154.18"/><polyline class="cls-5" points="16.22 152.92 16.22 152.92 16.22 152.92 16.22 152.92 16.22 152.92"/><polyline class="cls-5" points="21.41 151.35 21.41 151.35 21.41 151.35 21.41 151.35 21.41 151.35"/><polyline class="cls-5" points="12.61 170.37 12.61 170.37 12.61 170.37 12.61 170.37 12.61 170.37"/><polyline class="cls-5" points="21.64 168.96 21.64 168.96 21.64 168.96 21.64 168.96 21.64 168.96"/><polyline class="cls-5" points="25.5 183.27 25.5 183.27 25.5 183.27 25.5 183.27 25.5 183.27"/><polyline class="cls-5" points="21.1 182.79 21.1 182.79 21.1 182.79 21.1 182.79 21.1 182.79"/><polyline class="cls-5" points="33.36 187.67 33.36 187.67 33.36 187.67 33.36 187.67 33.36 187.67"/><polyline class="cls-5" points="42.33 194.74 42.33 194.74 42.33 194.74 42.33 194.74 42.33 194.74"/><polyline class="cls-5" points="16.18 159.2 16.18 159.2 16.18 159.2 16.18 159.2 16.18 159.2"/><polyline class="cls-6" points="99.2 85.22 99.2 85.22 99.2 85.22 99.2 85.22 99.2 85.22"/><polyline class="cls-6" points="91.79 81.11 91.79 81.11 91.79 81.11 91.79 81.11 91.79 81.11"/><polyline class="cls-6" points="93.69 76.51 93.69 76.51 93.69 76.51 93.69 76.51 93.69 76.51"/><polyline class="cls-6" points="104.8 80.21 104.8 80.21 104.8 80.21 104.8 80.21 104.8 80.21"/><polyline class="cls-6" points="99 77.31 99 77.31 99 77.31 99 77.31 99 77.31"/><polyline class="cls-6" points="108.71 77.21 108.71 77.21 108.71 77.21 108.71 77.21 108.71 77.21"/><polyline class="cls-6" points="111.91 69.7 111.91 69.7 111.91 69.7 111.91 69.7 111.91 69.7"/><polyline class="cls-6" points="110.61 61.99 110.61 61.99 110.61 61.99 110.61 61.99 110.61 61.99"/><polyline class="cls-6" points="117.42 69 117.42 69 117.42 69 117.42 69 117.42 69"/><polyline class="cls-6" points="113.91 57.18 113.91 57.18 113.91 57.18 113.91 57.18 113.91 57.18"/><polyline class="cls-3" points="127.81 147.49 127.81 147.49 127.81 147.49 127.81 147.49 127.81 147.49"/><polyline class="cls-3" points="102.66 135.65 102.66 135.65 102.66 135.65 102.66 135.65 102.66 135.65"/><polyline class="cls-3" points="86.76 180.45 86.76 180.45 86.76 180.45 86.76 180.45 86.76 180.45"/><polyline class="cls-5" points="4.16 134.95 4.16 134.95 4.16 134.95 4.16 134.95 4.16 134.95"/><polyline class="cls-5" points="3.34 145.44 3.34 145.44 3.34 145.44 3.34 145.44 3.34 145.44"/><polyline class="cls-5" points="9 127.44 9 127.44 9 127.44 9 127.44 9 127.44"/><polyline class="cls-5" points="16.41 127.24 16.41 127.24 16.41 127.24 16.41 127.24 16.41 127.24"/><polyline class="cls-5" points="17.64 117.36 17.64 117.36 17.64 117.36 17.64 117.36 17.64 117.36"/><polyline class="cls-1" points="71.26 62.52 71.26 62.52 71.26 62.52 71.26 62.52 71.26 62.52"/><polyline class="cls-1" points="67.11 43.22 67.11 43.22 67.11 43.22 67.11 43.22 67.11 43.22"/><polyline class="cls-1" points="69.19 38.71 69.19 38.71 69.19 38.71 69.19 38.71 69.19 38.71"/><polyline class="cls-1" points="62.84 33.7 62.84 33.7 62.84 33.7 62.84 33.7 62.84 33.7"/><polyline class="cls-1" points="67.23 33.7 67.23 33.7 67.23 33.7 67.23 33.7 67.23 33.7"/><polyline class="cls-1" points="63.45 25.03 63.45 25.03 63.45 25.03 63.45 25.03 63.45 25.03"/><polyline class="cls-1" points="67.96 14.9 67.96 14.9 67.96 14.9 67.96 14.9 67.96 14.9"/><polyline class="cls-1" points="74.44 8.55 74.44 8.55 74.44 8.55 74.44 8.55 74.44 8.55"/><polyline class="cls-1" points="74.19 24.06 74.19 24.06 74.19 24.06 74.19 24.06 74.19 24.06"/><polyline class="cls-1" points="73.34 18.68 73.34 18.68 73.34 18.68 73.34 18.68 73.34 18.68"/><polyline class="cls-1" points="79.42 19.48 79.42 19.48 79.42 19.48 79.42 19.48 79.42 19.48"/><polyline class="cls-1" points="83.9 8.01 83.9 8.01 83.9 8.01 83.9 8.01 83.9 8.01"/><polyline class="cls-1" points="89.92 6.89 89.92 6.89 89.92 6.89 89.92 6.89 89.92 6.89"/><polyline class="cls-1" points="99.71 14.51 99.71 14.51 99.71 14.51 99.71 14.51 99.71 14.51"/><polyline class="cls-1" points="102.25 9.15 102.25 9.15 102.25 9.15 102.25 9.15 102.25 9.15"/></g></svg>